# xmcd
#
# Track frame offsets:
#	150
#	13127
#	25435
#	44990
#	57881
#	72640
#	85985
#	105155
#	117055
#	130697
#	142171
#	154706
#	169472
#	180579
#
# Disc length: 2623 seconds
#
# Revision: 0
# Processed by: cddbd v1.5.2PL0 Copyright (c) Steve Scherf et al.
# Submitted via: EasyCDDAExtractor 10.0.6.1
#
DISCID=c80a3d0e
DTITLE=Local Exchange - Wolf Productions
DYEAR=1900
DGENRE=Bluegrass
TTITLE0=On A Dead Run
TTITLE1=How Many Roads
TTITLE2=Mary Dear
TTITLE3=My Name Is Judas
TTITLE4=Message From You
TTITLE5=Old, Old House
TTITLE6=Sometimes I Miss
TTITLE7=Passing Of The Train
TTITLE8=I'm Not Over You
TTITLE9=Let Me Whisper
TTITLE10=Be Not Afaaid
TTITLE11=This Heart Of Mine
TTITLE12=Shenandoah
TTITLE13=Believe Me Baby I Lied
EXTD=
EXTT0=
EXTT1=
EXTT2=
EXTT3=
EXTT4=
EXTT5=
EXTT6=
EXTT7=
EXTT8=
EXTT9=
EXTT10=
EXTT11=
EXTT12=
EXTT13=
PLAYORDER=
